Coordinates
version=1
nRows=16
nColumns=63
inDegrees=yes

Units are S.I. units (second, meters, Newtons, ...)
If the header above contains a line with 'inDegrees', this indicates whether rotational values are in degrees (yes) or radians (no).

endheader
time	pelvis_tilt	pelvis_list	pelvis_rotation	pelvis_tx	pelvis_ty	pelvis_tz	hip_flexion_r	hip_adduction_r	hip_rotation_r	knee_angle_r	knee_angle_r_beta	ankle_angle_r	subtalar_angle_r	mtp_angle_r	hip_flexion_l	hip_adduction_l	hip_rotation_l	knee_angle_l	knee_angle_l_beta	ankle_angle_l	subtalar_angle_l	mtp_angle_l	L5_S1_Flex_Ext	L5_S1_Lat_Bending	L5_S1_axial_rotation	L4_L5_Flex_Ext	L4_L5_Lat_Bending	L4_L5_axial_rotation	L3_L4_Flex_Ext	L3_L4_Lat_Bending	L3_L4_axial_rotation	L2_L3_Flex_Ext	L2_L3_Lat_Bending	L2_L3_axial_rotation	L1_L2_Flex_Ext	L1_L2_Lat_Bending	L1_L2_axial_rotation	L1_T12_Flex_Ext	L1_T12_Lat_Bending	L1_T12_axial_rotation	Abs_r3	Abs_r2	Abs_r1	Abs_t1	Abs_t2	neck_flexion	neck_bending	neck_rotation	arm_flex_r	arm_add_r	arm_rot_r	elbow_flex_r	pro_sup_r	wrist_flex_r	wrist_dev_r	arm_flex_l	arm_add_l	arm_rot_l	elbow_flex_l	pro_sup_l	wrist_flex_l	wrist_dev_l
2.360000	-1.348271	1.582077	86.189445	0.231666	0.894454	0.646231	3.134209	-5.324543	-6.398103	26.882378	0.469186	41.421454	6.057776	0.000000	-9.611503	3.837388	14.042257	1.721138	0.030040	31.954219	-14.405552	0.000000	0.037118	-0.403018	-0.581283	0.068933	-0.536014	-0.617614	0.060982	-0.979899	-0.617614	0.042423	-0.979899	-0.508623	0.034468	-0.821835	-0.472293	0.021209	-0.624275	-0.435963	0.265133	-4.559024	-3.232924	0.000000	0.000000	2.023953	4.940360	-9.754188	-306.580518	-88.891357	-398.766382	109.951712	72.256285	45.208058	-16.678569	98.728757	-66.079049	-14.391291	136.803144	89.049601	19.725314	14.940445
2.380000	-1.438282	1.573198	85.993290	0.231855	0.894626	0.647061	3.123203	-5.428533	-6.337782	26.738943	0.466683	41.329432	6.137914	0.000000	-9.534943	3.960368	13.973153	1.752762	0.030591	31.699461	-14.737126	0.000000	0.034673	-0.427902	-0.550231	0.064392	-0.569110	-0.584620	0.056965	-1.040402	-0.584620	0.039628	-1.040402	-0.481452	0.032198	-0.872579	-0.447063	0.019812	-0.662821	-0.412673	0.247667	-4.840518	-3.060220	0.000000	0.000000	1.851572	4.990873	-10.228865	-310.917353	-88.370892	-402.728915	110.500275	73.416357	44.367924	-16.536399	99.484590	-65.933301	-13.810704	136.818173	88.995271	20.690049	15.517674
2.400000	-1.493745	1.578004	85.881782	0.232001	0.894822	0.647726	3.021381	-5.486201	-6.373186	26.522006	0.462896	41.201236	6.239268	0.000000	-9.494324	4.026719	13.939578	1.771719	0.030922	31.462300	-15.012661	0.000000	0.033057	-0.448646	-0.541116	0.061391	-0.596699	-0.574936	0.054310	-1.090837	-0.574936	0.037781	-1.090837	-0.473476	0.030697	-0.914878	-0.439657	0.018889	-0.694952	-0.405837	0.236126	-5.075169	-3.009524	0.000000	0.000000	1.787202	5.067994	-10.642988	-314.919455	-87.833088	-406.216673	111.117351	74.639876	42.974872	-16.370264	100.138793	-65.846538	-13.277506	136.817601	88.941609	21.297025	15.901522
2.420000	-1.522224	1.598646	85.807631	0.232141	0.895019	0.648258	2.852626	-5.513676	-6.476163	26.256311	0.458259	41.049106	6.386710	0.000000	-9.496382	4.055004	13.945923	1.766089	0.030824	31.227770	-15.301304	0.000000	0.030772	-0.466940	-0.546324	0.057147	-0.621030	-0.580470	0.050556	-1.135317	-0.580470	0.035170	-1.135317	-0.478034	0.028575	-0.952184	-0.443889	0.017583	-0.723290	-0.409743	0.219804	-5.282116	-3.038493	0.000000	0.000000	1.862496	5.178018	-11.084058	-318.476426	-87.270139	-409.198742	111.738880	75.767292	41.386940	-16.021784	100.802251	-65.803360	-12.707914	136.778825	88.866312	21.585327	16.063003
2.440000	-1.486507	1.624226	85.778181	0.232212	0.895260	0.648634	2.630759	-5.469072	-6.625557	25.944439	0.452816	40.857203	6.533302	0.000000	-9.529057	4.008132	13.966029	1.742482	0.030412	31.016098	-15.556466	0.000000	0.029633	-0.475686	-0.554084	0.055032	-0.632662	-0.588714	0.048685	-1.156583	-0.588714	0.033868	-1.156583	-0.484823	0.027518	-0.970019	-0.450193	0.016933	-0.736838	-0.415563	0.211668	-5.381055	-3.081649	0.000000	0.000000	2.049516	5.317937	-11.450711	-321.563567	-86.800906	-411.698920	112.324974	76.718966	39.860874	-15.507509	101.091881	-65.700957	-12.431050	136.717121	88.796115	21.510889	15.900577
2.460000	-1.391935	1.665382	85.806769	0.232202	0.895533	0.648861	2.360836	-5.361717	-6.833287	25.611565	0.447006	40.633069	6.668834	0.000000	-9.601364	3.890516	14.019295	1.701225	0.029692	30.833932	-15.777769	0.000000	0.026636	-0.476373	-0.575527	0.049465	-0.633576	-0.611497	0.043760	-1.158253	-0.611497	0.030442	-1.158253	-0.503586	0.024734	-0.971420	-0.467616	0.015220	-0.737902	-0.431645	0.190256	-5.388827	-3.200907	0.000000	0.000000	2.339551	5.525343	-11.726092	-323.891057	-86.346642	-413.431877	112.816026	77.409238	38.426832	-14.988464	101.193660	-65.492864	-12.778271	136.781545	88.719701	22.882512	16.662441
2.480000	-1.240044	1.701605	85.909279	0.232108	0.895843	0.648872	2.056097	-5.182250	-7.075221	25.241226	0.440543	40.365680	6.740405	0.000000	-9.692313	3.700264	14.123183	1.646584	0.028738	30.686392	-15.958506	0.000000	0.025322	-0.467190	-0.600926	0.047025	-0.621363	-0.638484	0.041601	-1.135926	-0.638484	0.028940	-1.135926	-0.525811	0.023514	-0.952694	-0.488253	0.014469	-0.723677	-0.450695	0.180871	-5.284948	-3.342172	0.000000	0.000000	2.701052	5.801256	-11.880465	-325.705629	-86.022962	-414.707665	113.176549	77.632423	37.471111	-14.359617	100.833939	-65.317796	-13.175503	136.714137	88.670081	22.906816	16.314358
2.500000	-1.040789	1.738119	86.072039	0.231962	0.896183	0.648667	1.729319	-4.941170	-7.331141	24.859437	0.433879	40.061619	6.743590	0.000000	-9.806196	3.450007	14.255784	1.581933	0.027610	30.575442	-16.080872	0.000000	0.024398	-0.449873	-0.628401	0.045309	-0.598331	-0.667676	0.040083	-1.093822	-0.667676	0.027884	-1.093822	-0.549851	0.022656	-0.917382	-0.510576	0.013941	-0.696854	-0.471301	0.174272	-5.089057	-3.494976	0.000000	0.000000	3.118173	6.136051	-11.987017	-326.894417	-85.817493	-415.449546	113.372078	77.322314	37.147255	-13.662126	100.118576	-65.180429	-13.579705	136.520512	88.645167	21.830312	14.976736
2.520000	-0.792666	1.774608	86.294227	0.231737	0.896550	0.648229	1.387986	-4.636372	-7.591083	24.475306	0.427175	39.719995	6.666615	0.000000	-9.944363	3.139431	14.418525	1.506188	0.026288	30.497282	-16.145889	0.000000	0.024239	-0.423462	-0.658341	0.045013	-0.563205	-0.699488	0.039821	-1.029606	-0.699488	0.027702	-1.029606	-0.576049	0.022508	-0.863524	-0.534902	0.013850	-0.655943	-0.493756	0.173133	-4.790290	-3.661498	0.000000	0.000000	3.561542	6.529489	-12.033747	-327.385319	-85.758188	-415.578644	113.378409	76.487546	37.467188	-13.034408	99.044986	-65.089945	-14.016868	136.226042	88.642626	19.819685	12.808347
2.540000	-0.514516	1.801931	86.588236	0.231456	0.896943	0.647565	1.049310	-4.291038	-7.886793	24.100649	0.420636	39.356007	6.552284	0.000000	-10.093965	2.783389	14.655301	1.420977	0.024801	30.426424	-16.192657	0.000000	0.025340	-0.392515	-0.681257	0.047059	-0.522045	-0.723835	0.041631	-0.954360	-0.723835	0.028961	-0.954360	-0.596100	0.023531	-0.800416	-0.553521	0.014479	-0.608005	-0.510943	0.181001	-4.440205	-3.788946	0.000000	0.000000	4.064947	7.005810	-12.224675	-327.843852	-85.925309	-415.786796	113.212313	75.224283	38.387424	-12.597098	97.801684	-64.976988	-14.234364	135.830951	88.662714	16.866739	9.952196
2.560000	-0.200092	1.819953	86.891279	0.231111	0.897330	0.646702	0.733431	-3.908648	-8.182922	23.752364	0.414557	38.989818	6.450634	0.000000	-10.254429	2.390404	14.880790	1.329187	0.023199	30.380308	-16.173015	0.000000	0.028514	-0.352320	-0.707581	0.052953	-0.468586	-0.751805	0.046846	-0.856631	-0.751805	0.032589	-0.856631	-0.619133	0.026478	-0.718451	-0.574910	0.016293	-0.545744	-0.530686	0.203673	-3.985516	-3.935354	0.000000	0.000000	4.586932	7.489508	-12.330863	-326.910870	-86.141728	-414.782890	112.909112	73.549270	39.783341	-11.989289	96.187400	-64.969467	-14.547017	135.350534	88.704663	13.497729	6.567951
2.580000	0.113804	1.825413	87.201833	0.230816	0.897681	0.645668	0.458041	-3.518737	-8.462966	23.445696	0.409205	38.646857	6.346713	0.000000	-10.414399	1.993027	15.097753	1.238236	0.021611	30.345610	-16.091268	0.000000	0.033303	-0.310861	-0.743397	0.061846	-0.413445	-0.789860	0.054713	-0.755828	-0.789860	0.038062	-0.755828	-0.650473	0.030925	-0.633908	-0.604010	0.019029	-0.481524	-0.557548	0.237877	-3.516524	-4.134553	0.000000	0.000000	5.176931	8.013863	-12.471443	-324.582052	-86.321352	-412.636093	112.414215	71.141221	42.153336	-10.938354	94.083422	-65.272044	-14.338568	134.433624	88.798000	7.167472	0.295725
2.600000	0.444725	1.834552	87.479410	0.230523	0.898009	0.644534	0.215741	-3.118486	-8.722339	23.182292	0.404607	38.346639	6.286993	0.000000	-10.588433	1.586951	15.304728	1.149839	0.020068	30.321823	-15.981732	0.000000	0.039045	-0.263689	-0.781601	0.072511	-0.350707	-0.830451	0.064147	-0.641135	-0.830451	0.044625	-0.641135	-0.683901	0.036257	-0.537716	-0.635051	0.022310	-0.408455	-0.586201	0.278896	-2.982908	-4.347029	0.000000	0.000000	5.782181	8.525545	-12.540915	-320.748230	-86.364484	-409.359905	111.821657	68.406316	45.382783	-9.435905	91.986161	-65.577832	-14.347666	133.652461	88.902356	2.359618	-4.638637
2.620000	0.781200	1.860058	87.706528	0.230263	0.898301	0.643355	0.002220	-2.717567	-8.923635	22.970554	0.400912	38.096900	6.234873	0.000000	-10.783391	1.188749	15.498072	1.066757	0.018618	30.315620	-15.860123	0.000000	0.044833	-0.211585	-0.823411	0.083260	-0.281408	-0.874874	0.073657	-0.514447	-0.874874	0.051240	-0.514447	-0.720485	0.041632	-0.431464	-0.669021	0.025618	-0.327745	-0.617558	0.320239	-2.393489	-4.579565	0.000000	0.000000	6.372917	9.003848	-12.444727	-315.626242	-85.987153	-405.614146	111.183498	65.563529	51.515072	-7.835713	89.927347	-65.875516	-14.599181	133.007020	89.011457	-0.789993	-8.126417
2.640000	1.073794	1.890126	87.886365	0.230204	0.898561	0.642163	-0.169991	-2.354761	-9.044620	22.810194	0.398113	37.903564	6.150574	0.000000	-10.977258	0.839476	15.668006	0.996130	0.017386	30.314660	-15.716571	0.000000	0.052733	-0.165457	-0.855692	0.097931	-0.220058	-0.909173	0.086635	-0.402292	-0.909173	0.060269	-0.402292	-0.748730	0.048968	-0.337400	-0.695250	0.030132	-0.256293	-0.641769	0.376668	-1.871683	-4.759102	0.000000	0.000000	6.924665	9.516373	-12.350726	-313.363983	-85.316206	-404.527258	110.759816	63.514891	54.503951	-6.791882	88.052007	-66.020431	-14.901664	132.453476	89.133538	-2.477158	-10.300473
2.660000	1.317740	1.938084	87.982569	0.230316	0.898769	0.641000	-0.310679	-2.040688	-9.042624	22.704764	0.396273	37.765001	6.012373	0.000000	-11.183063	0.556448	15.786040	0.938698	0.016383	30.309690	-15.583853	0.000000	0.060461	-0.123047	-0.870708	0.112283	-0.163653	-0.925128	0.099332	-0.299177	-0.925128	0.069101	-0.299177	-0.761870	0.056145	-0.250918	-0.707451	0.034548	-0.190600	-0.653031	0.431870	-1.391936	-4.842619	0.000000	0.000000	7.442298	9.965294	-12.208384	-311.531400	-84.368644	-403.801331	110.517230	62.230770	55.121607	-6.205895	86.378401	-65.998461	-15.395005	131.996573	89.225093	-2.446825	-11.076628
